%TF.GenerationSoftware,KiCad,Pcbnew,7.0.1-3b83917a11~172~ubuntu22.10.1*%
%TF.CreationDate,2023-08-26T17:03:54+02:00*%
%TF.ProjectId,controller,636f6e74-726f-46c6-9c65-722e6b696361,rev?*%
%TF.SameCoordinates,Original*%
%TF.FileFunction,Paste,Bot*%
%TF.FilePolarity,Positive*%
%FSLAX46Y46*%
G04 Gerber Fmt 4.6, Leading zero omitted, Abs format (unit mm)*
G04 Created by KiCad (PCBNEW 7.0.1-3b83917a11~172~ubuntu22.10.1) date 2023-08-26 17:03:54*
%MOMM*%
%LPD*%
G01*
G04 APERTURE LIST*
G04 Aperture macros list*
%AMRoundRect*
0 Rectangle with rounded corners*
0 $1 Rounding radius*
0 $2 $3 $4 $5 $6 $7 $8 $9 X,Y pos of 4 corners*
0 Add a 4 corners polygon primitive as box body*
4,1,4,$2,$3,$4,$5,$6,$7,$8,$9,$2,$3,0*
0 Add four circle primitives for the rounded corners*
1,1,$1+$1,$2,$3*
1,1,$1+$1,$4,$5*
1,1,$1+$1,$6,$7*
1,1,$1+$1,$8,$9*
0 Add four rect primitives between the rounded corners*
20,1,$1+$1,$2,$3,$4,$5,0*
20,1,$1+$1,$4,$5,$6,$7,0*
20,1,$1+$1,$6,$7,$8,$9,0*
20,1,$1+$1,$8,$9,$2,$3,0*%
G04 Aperture macros list end*
%ADD10RoundRect,0.250000X-0.350000X-0.450000X0.350000X-0.450000X0.350000X0.450000X-0.350000X0.450000X0*%
%ADD11R,4.500000X2.000000*%
%ADD12RoundRect,0.237500X-0.237500X0.300000X-0.237500X-0.300000X0.237500X-0.300000X0.237500X0.300000X0*%
%ADD13RoundRect,0.250000X0.350000X0.450000X-0.350000X0.450000X-0.350000X-0.450000X0.350000X-0.450000X0*%
%ADD14RoundRect,0.237500X-0.300000X-0.237500X0.300000X-0.237500X0.300000X0.237500X-0.300000X0.237500X0*%
%ADD15RoundRect,0.237500X0.300000X0.237500X-0.300000X0.237500X-0.300000X-0.237500X0.300000X-0.237500X0*%
%ADD16R,1.600000X0.550000*%
%ADD17R,0.550000X1.600000*%
%ADD18RoundRect,0.237500X0.237500X-0.300000X0.237500X0.300000X-0.237500X0.300000X-0.237500X-0.300000X0*%
%ADD19RoundRect,0.150000X0.825000X0.150000X-0.825000X0.150000X-0.825000X-0.150000X0.825000X-0.150000X0*%
G04 APERTURE END LIST*
D10*
%TO.C,R9*%
X69362919Y-54072500D03*
X71362919Y-54072500D03*
%TD*%
%TO.C,R10*%
X69862919Y-56572500D03*
X71862919Y-56572500D03*
%TD*%
D11*
%TO.C,Y1*%
X59700000Y-88180000D03*
X68200000Y-88180000D03*
%TD*%
D12*
%TO.C,C19*%
X83780419Y-35137500D03*
X83780419Y-36862500D03*
%TD*%
%TO.C,C6*%
X65400419Y-103904849D03*
X65400419Y-105629849D03*
%TD*%
D10*
%TO.C,R5*%
X69362919Y-44072500D03*
X71362919Y-44072500D03*
%TD*%
D13*
%TO.C,R3*%
X71362919Y-65072500D03*
X69362919Y-65072500D03*
%TD*%
D10*
%TO.C,R7*%
X69362919Y-49072500D03*
X71362919Y-49072500D03*
%TD*%
D13*
%TO.C,R2*%
X71362919Y-62572500D03*
X69362919Y-62572500D03*
%TD*%
D12*
%TO.C,C1*%
X80400419Y-103904849D03*
X80400419Y-105629849D03*
%TD*%
D13*
%TO.C,R1*%
X71362919Y-60072500D03*
X69362919Y-60072500D03*
%TD*%
D14*
%TO.C,C7*%
X59837500Y-79680000D03*
X61562500Y-79680000D03*
%TD*%
%TO.C,C8*%
X59837500Y-81180000D03*
X61562500Y-81180000D03*
%TD*%
D15*
%TO.C,C5*%
X49565419Y-36350000D03*
X47840419Y-36350000D03*
%TD*%
D16*
%TO.C,U3*%
X57950000Y-77380000D03*
X57950000Y-78180000D03*
X57950000Y-78980000D03*
X57950000Y-79780000D03*
X57950000Y-80580000D03*
X57950000Y-81380000D03*
X57950000Y-82180000D03*
X57950000Y-82980000D03*
D17*
X56500000Y-84430000D03*
X55700000Y-84430000D03*
X54900000Y-84430000D03*
X54100000Y-84430000D03*
X53300000Y-84430000D03*
X52500000Y-84430000D03*
X51700000Y-84430000D03*
X50900000Y-84430000D03*
D16*
X49450000Y-82980000D03*
X49450000Y-82180000D03*
X49450000Y-81380000D03*
X49450000Y-80580000D03*
X49450000Y-79780000D03*
X49450000Y-78980000D03*
X49450000Y-78180000D03*
X49450000Y-77380000D03*
D17*
X50900000Y-75930000D03*
X51700000Y-75930000D03*
X52500000Y-75930000D03*
X53300000Y-75930000D03*
X54100000Y-75930000D03*
X54900000Y-75930000D03*
X55700000Y-75930000D03*
X56500000Y-75930000D03*
%TD*%
D14*
%TO.C,C11*%
X59937500Y-84700000D03*
X61662500Y-84700000D03*
%TD*%
D12*
%TO.C,C15*%
X100897919Y-71736250D03*
X100897919Y-73461250D03*
%TD*%
D15*
%TO.C,C12*%
X65162500Y-84700000D03*
X63437500Y-84700000D03*
%TD*%
D18*
%TO.C,C3*%
X61702919Y-50212500D03*
X61702919Y-48487500D03*
%TD*%
D10*
%TO.C,R6*%
X69362919Y-46572500D03*
X71362919Y-46572500D03*
%TD*%
D12*
%TO.C,C13*%
X101122919Y-93346250D03*
X101122919Y-95071250D03*
%TD*%
D19*
%TO.C,U4*%
X51177919Y-38020000D03*
X51177919Y-39290000D03*
X51177919Y-40560000D03*
X51177919Y-41830000D03*
X51177919Y-43100000D03*
X51177919Y-44370000D03*
X51177919Y-45640000D03*
X46227919Y-45640000D03*
X46227919Y-44370000D03*
X46227919Y-43100000D03*
X46227919Y-41830000D03*
X46227919Y-40560000D03*
X46227919Y-39290000D03*
X46227919Y-38020000D03*
%TD*%
D15*
%TO.C,C9*%
X46562500Y-80680000D03*
X44837500Y-80680000D03*
%TD*%
D10*
%TO.C,R8*%
X69362919Y-51572500D03*
X71362919Y-51572500D03*
%TD*%
D12*
%TO.C,C17*%
X100782919Y-49736250D03*
X100782919Y-51461250D03*
%TD*%
D13*
%TO.C,R4*%
X71362919Y-67572500D03*
X69362919Y-67572500D03*
%TD*%
M02*
