%TF.GenerationSoftware,KiCad,Pcbnew,7.0.1-3b83917a11~172~ubuntu22.10.1*%
%TF.CreationDate,2023-08-26T17:03:55+02:00*%
%TF.ProjectId,controller,636f6e74-726f-46c6-9c65-722e6b696361,rev?*%
%TF.SameCoordinates,Original*%
%TF.FileFunction,Soldermask,Bot*%
%TF.FilePolarity,Negative*%
%FSLAX46Y46*%
G04 Gerber Fmt 4.6, Leading zero omitted, Abs format (unit mm)*
G04 Created by KiCad (PCBNEW 7.0.1-3b83917a11~172~ubuntu22.10.1) date 2023-08-26 17:03:55*
%MOMM*%
%LPD*%
G01*
G04 APERTURE LIST*
G04 Aperture macros list*
%AMRoundRect*
0 Rectangle with rounded corners*
0 $1 Rounding radius*
0 $2 $3 $4 $5 $6 $7 $8 $9 X,Y pos of 4 corners*
0 Add a 4 corners polygon primitive as box body*
4,1,4,$2,$3,$4,$5,$6,$7,$8,$9,$2,$3,0*
0 Add four circle primitives for the rounded corners*
1,1,$1+$1,$2,$3*
1,1,$1+$1,$4,$5*
1,1,$1+$1,$6,$7*
1,1,$1+$1,$8,$9*
0 Add four rect primitives between the rounded corners*
20,1,$1+$1,$2,$3,$4,$5,0*
20,1,$1+$1,$4,$5,$6,$7,0*
20,1,$1+$1,$6,$7,$8,$9,0*
20,1,$1+$1,$8,$9,$2,$3,0*%
%AMFreePoly0*
4,1,19,0.500000,-0.750000,0.000000,-0.750000,0.000000,-0.744911,-0.071157,-0.744911,-0.207708,-0.704816,-0.327430,-0.627875,-0.420627,-0.520320,-0.479746,-0.390866,-0.500000,-0.250000,-0.500000,0.250000,-0.479746,0.390866,-0.420627,0.520320,-0.327430,0.627875,-0.207708,0.704816,-0.071157,0.744911,0.000000,0.744911,0.000000,0.750000,0.500000,0.750000,0.500000,-0.750000,0.500000,-0.750000,
$1*%
%AMFreePoly1*
4,1,19,0.000000,0.744911,0.071157,0.744911,0.207708,0.704816,0.327430,0.627875,0.420627,0.520320,0.479746,0.390866,0.500000,0.250000,0.500000,-0.250000,0.479746,-0.390866,0.420627,-0.520320,0.327430,-0.627875,0.207708,-0.704816,0.071157,-0.744911,0.000000,-0.744911,0.000000,-0.750000,-0.500000,-0.750000,-0.500000,0.750000,0.000000,0.750000,0.000000,0.744911,0.000000,0.744911,
$1*%
G04 Aperture macros list end*
%ADD10R,1.700000X1.700000*%
%ADD11O,1.700000X1.700000*%
%ADD12RoundRect,0.250000X-0.350000X-0.625000X0.350000X-0.625000X0.350000X0.625000X-0.350000X0.625000X0*%
%ADD13O,1.200000X1.750000*%
%ADD14C,0.900000*%
%ADD15C,8.600000*%
%ADD16R,1.600000X1.600000*%
%ADD17O,1.600000X1.600000*%
%ADD18C,1.600000*%
%ADD19O,2.000000X1.200000*%
%ADD20R,3.000000X3.000000*%
%ADD21C,3.000000*%
%ADD22R,2.032000X2.032000*%
%ADD23C,2.032000*%
%ADD24RoundRect,0.250000X0.725000X-0.600000X0.725000X0.600000X-0.725000X0.600000X-0.725000X-0.600000X0*%
%ADD25O,1.950000X1.700000*%
%ADD26R,1.600000X2.400000*%
%ADD27O,1.600000X2.400000*%
%ADD28C,4.000000*%
%ADD29RoundRect,0.250000X-0.625000X0.350000X-0.625000X-0.350000X0.625000X-0.350000X0.625000X0.350000X0*%
%ADD30O,1.750000X1.200000*%
%ADD31C,0.990600*%
%ADD32O,2.500000X2.000000*%
%ADD33RoundRect,0.250000X-0.350000X-0.450000X0.350000X-0.450000X0.350000X0.450000X-0.350000X0.450000X0*%
%ADD34R,4.500000X2.000000*%
%ADD35RoundRect,0.237500X-0.237500X0.300000X-0.237500X-0.300000X0.237500X-0.300000X0.237500X0.300000X0*%
%ADD36RoundRect,0.250000X0.350000X0.450000X-0.350000X0.450000X-0.350000X-0.450000X0.350000X-0.450000X0*%
%ADD37FreePoly0,180.000000*%
%ADD38FreePoly1,180.000000*%
%ADD39RoundRect,0.237500X-0.300000X-0.237500X0.300000X-0.237500X0.300000X0.237500X-0.300000X0.237500X0*%
%ADD40RoundRect,0.237500X0.300000X0.237500X-0.300000X0.237500X-0.300000X-0.237500X0.300000X-0.237500X0*%
%ADD41R,1.600000X0.550000*%
%ADD42R,0.550000X1.600000*%
%ADD43RoundRect,0.237500X0.237500X-0.300000X0.237500X0.300000X-0.237500X0.300000X-0.237500X-0.300000X0*%
%ADD44RoundRect,0.150000X0.825000X0.150000X-0.825000X0.150000X-0.825000X-0.150000X0.825000X-0.150000X0*%
G04 APERTURE END LIST*
D10*
%TO.C,J10*%
X55702919Y-35975000D03*
D11*
X55702919Y-38515000D03*
X55702919Y-41055000D03*
X55702919Y-43595000D03*
X55702919Y-46135000D03*
X55702919Y-48675000D03*
X55702919Y-51215000D03*
X55702919Y-53755000D03*
%TD*%
D10*
%TO.C,J8*%
X38400000Y-72420000D03*
D11*
X38400000Y-69880000D03*
X38400000Y-67340000D03*
X38400000Y-64800000D03*
X38400000Y-62260000D03*
X38400000Y-59720000D03*
%TD*%
D12*
%TO.C,J3*%
X49000000Y-107000000D03*
D13*
X51000000Y-107000000D03*
%TD*%
D14*
%TO.C,H4*%
X104055419Y-104000000D03*
X105000000Y-101719581D03*
X105000000Y-106280419D03*
X107280419Y-100775000D03*
D15*
X107280419Y-104000000D03*
D14*
X107280419Y-107225000D03*
X109560838Y-101719581D03*
X109560838Y-106280419D03*
X110505419Y-104000000D03*
%TD*%
D16*
%TO.C,SW1*%
X77512919Y-50850000D03*
D17*
X77512919Y-53390000D03*
X77512919Y-55930000D03*
X77512919Y-58470000D03*
X77512919Y-61010000D03*
X77512919Y-63550000D03*
X77512919Y-66090000D03*
X77512919Y-68630000D03*
X85132919Y-68630000D03*
X85132919Y-66090000D03*
X85132919Y-63550000D03*
X85132919Y-61010000D03*
X85132919Y-58470000D03*
X85132919Y-55930000D03*
X85132919Y-53390000D03*
X85132919Y-50850000D03*
%TD*%
D14*
%TO.C,H2*%
X37775000Y-105000000D03*
X38719581Y-102719581D03*
X38719581Y-107280419D03*
X41000000Y-101775000D03*
D15*
X41000000Y-105000000D03*
D14*
X41000000Y-108225000D03*
X43280419Y-102719581D03*
X43280419Y-107280419D03*
X44225000Y-105000000D03*
%TD*%
D16*
%TO.C,C18*%
X99282919Y-77858750D03*
D18*
X95482919Y-77858750D03*
%TD*%
D16*
%TO.C,C2*%
X86280419Y-102964698D03*
D18*
X86280419Y-106764698D03*
%TD*%
D16*
%TO.C,C4*%
X73480419Y-94500000D03*
D18*
X77280419Y-94500000D03*
%TD*%
D16*
%TO.C,A3*%
X103375570Y-95678750D03*
D17*
X103375570Y-93138750D03*
X103375570Y-90598750D03*
X103375570Y-88058750D03*
X103375570Y-85518750D03*
X103375570Y-82978750D03*
X103375570Y-80438750D03*
X103375570Y-77898750D03*
X90675570Y-77898750D03*
X90675570Y-80438750D03*
X90675570Y-82978750D03*
X90675570Y-85518750D03*
X90675570Y-88058750D03*
X90675570Y-90598750D03*
X90675570Y-93138750D03*
X90675570Y-95678750D03*
%TD*%
D16*
%TO.C,A2*%
X103397919Y-73638750D03*
D17*
X103397919Y-71098750D03*
X103397919Y-68558750D03*
X103397919Y-66018750D03*
X103397919Y-63478750D03*
X103397919Y-60938750D03*
X103397919Y-58398750D03*
X103397919Y-55858750D03*
X90697919Y-55858750D03*
X90697919Y-58398750D03*
X90697919Y-60938750D03*
X90697919Y-63478750D03*
X90697919Y-66018750D03*
X90697919Y-68558750D03*
X90697919Y-71098750D03*
X90697919Y-73638750D03*
%TD*%
D19*
%TO.C,U5*%
X59357919Y-53235000D03*
X59357919Y-50695000D03*
X59357919Y-48155000D03*
X59357919Y-45615000D03*
X59357919Y-43075000D03*
X59357919Y-40535000D03*
%TD*%
D14*
%TO.C,H1*%
X37775000Y-27000000D03*
X38719581Y-24719581D03*
X38719581Y-29280419D03*
X41000000Y-23775000D03*
D15*
X41000000Y-27000000D03*
D14*
X41000000Y-30225000D03*
X43280419Y-24719581D03*
X43280419Y-29280419D03*
X44225000Y-27000000D03*
%TD*%
%TO.C,H3*%
X104055419Y-27000000D03*
X105000000Y-24719581D03*
X105000000Y-29280419D03*
X107280419Y-23775000D03*
D15*
X107280419Y-27000000D03*
D14*
X107280419Y-30225000D03*
X109560838Y-24719581D03*
X109560838Y-29280419D03*
X110505419Y-27000000D03*
%TD*%
D20*
%TO.C,J5*%
X93740419Y-106580000D03*
D21*
X98820419Y-106580000D03*
%TD*%
D20*
%TO.C,J6*%
X84500000Y-26000000D03*
D21*
X79420000Y-26000000D03*
X74340000Y-26000000D03*
X69260000Y-26000000D03*
X64180000Y-26000000D03*
%TD*%
D22*
%TO.C,BAR1*%
X66660419Y-44250000D03*
D23*
X66660419Y-46790000D03*
X66660419Y-49330000D03*
X66660419Y-51870000D03*
X66660419Y-54410000D03*
X66660419Y-56950000D03*
X66660419Y-59490000D03*
X66660419Y-62030000D03*
X66660419Y-64570000D03*
X66660419Y-67110000D03*
X74280419Y-67110000D03*
X74280419Y-64570000D03*
X74280419Y-62030000D03*
X74280419Y-59490000D03*
X74280419Y-56950000D03*
X74280419Y-54410000D03*
X74280419Y-51870000D03*
X74280419Y-49330000D03*
X74280419Y-46790000D03*
X74280419Y-44250000D03*
%TD*%
D12*
%TO.C,J1*%
X57280419Y-107000000D03*
D13*
X59280419Y-107000000D03*
%TD*%
D24*
%TO.C,J11*%
X108557919Y-46458750D03*
D25*
X108557919Y-43958750D03*
X108557919Y-41458750D03*
X108557919Y-38958750D03*
X108557919Y-36458750D03*
%TD*%
D26*
%TO.C,U1*%
X65905419Y-39825000D03*
D27*
X68445419Y-39825000D03*
X70985419Y-39825000D03*
X73525419Y-39825000D03*
X76065419Y-39825000D03*
X78605419Y-39825000D03*
X81145419Y-39825000D03*
X83685419Y-39825000D03*
X83685419Y-32205000D03*
X81145419Y-32205000D03*
X78605419Y-32205000D03*
X76065419Y-32205000D03*
X73525419Y-32205000D03*
X70985419Y-32205000D03*
X68445419Y-32205000D03*
X65905419Y-32205000D03*
%TD*%
D24*
%TO.C,J13*%
X108557919Y-90458750D03*
D25*
X108557919Y-87958750D03*
X108557919Y-85458750D03*
X108557919Y-82958750D03*
X108557919Y-80458750D03*
%TD*%
D16*
%TO.C,J14*%
X42490419Y-43600000D03*
D18*
X42490419Y-41100000D03*
X40490419Y-41100000D03*
X40490419Y-43600000D03*
D28*
X37630419Y-48350000D03*
X37630419Y-36350000D03*
%TD*%
D29*
%TO.C,J2*%
X38900000Y-93000000D03*
D30*
X38900000Y-95000000D03*
%TD*%
D16*
%TO.C,C16*%
X99080419Y-55748750D03*
D18*
X95280419Y-55748750D03*
%TD*%
D31*
%TO.C,J9*%
X46780419Y-82640000D03*
X47796419Y-87720000D03*
X45764419Y-87720000D03*
%TD*%
D32*
%TO.C,U2*%
X80520419Y-109317349D03*
X80520419Y-100177349D03*
X65280419Y-109317349D03*
X65280419Y-100177349D03*
%TD*%
D16*
%TO.C,A1*%
X103282919Y-51598750D03*
D17*
X103282919Y-49058750D03*
X103282919Y-46518750D03*
X103282919Y-43978750D03*
X103282919Y-41438750D03*
X103282919Y-38898750D03*
X103282919Y-36358750D03*
X103282919Y-33818750D03*
X90582919Y-33818750D03*
X90582919Y-36358750D03*
X90582919Y-38898750D03*
X90582919Y-41438750D03*
X90582919Y-43978750D03*
X90582919Y-46518750D03*
X90582919Y-49058750D03*
X90582919Y-51598750D03*
%TD*%
D29*
%TO.C,J4*%
X38900000Y-82000000D03*
D30*
X38900000Y-84000000D03*
%TD*%
D24*
%TO.C,J12*%
X108557919Y-68498750D03*
D25*
X108557919Y-65998750D03*
X108557919Y-63498750D03*
X108557919Y-60998750D03*
X108557919Y-58498750D03*
%TD*%
D16*
%TO.C,C14*%
X98745570Y-33748750D03*
D18*
X94945570Y-33748750D03*
%TD*%
D33*
%TO.C,R9*%
X69362919Y-54072500D03*
X71362919Y-54072500D03*
%TD*%
%TO.C,R10*%
X69862919Y-56572500D03*
X71862919Y-56572500D03*
%TD*%
D34*
%TO.C,Y1*%
X59700000Y-88180000D03*
X68200000Y-88180000D03*
%TD*%
D35*
%TO.C,C19*%
X83780419Y-35137500D03*
X83780419Y-36862500D03*
%TD*%
%TO.C,C6*%
X65400419Y-103904849D03*
X65400419Y-105629849D03*
%TD*%
D33*
%TO.C,R5*%
X69362919Y-44072500D03*
X71362919Y-44072500D03*
%TD*%
D36*
%TO.C,R3*%
X71362919Y-65072500D03*
X69362919Y-65072500D03*
%TD*%
D37*
%TO.C,JP1*%
X38245419Y-43300000D03*
D38*
X36945419Y-43300000D03*
%TD*%
D33*
%TO.C,R7*%
X69362919Y-49072500D03*
X71362919Y-49072500D03*
%TD*%
D36*
%TO.C,R2*%
X71362919Y-62572500D03*
X69362919Y-62572500D03*
%TD*%
D35*
%TO.C,C1*%
X80400419Y-103904849D03*
X80400419Y-105629849D03*
%TD*%
D36*
%TO.C,R1*%
X71362919Y-60072500D03*
X69362919Y-60072500D03*
%TD*%
D39*
%TO.C,C7*%
X59837500Y-79680000D03*
X61562500Y-79680000D03*
%TD*%
%TO.C,C8*%
X59837500Y-81180000D03*
X61562500Y-81180000D03*
%TD*%
D40*
%TO.C,C5*%
X49565419Y-36350000D03*
X47840419Y-36350000D03*
%TD*%
D41*
%TO.C,U3*%
X57950000Y-77380000D03*
X57950000Y-78180000D03*
X57950000Y-78980000D03*
X57950000Y-79780000D03*
X57950000Y-80580000D03*
X57950000Y-81380000D03*
X57950000Y-82180000D03*
X57950000Y-82980000D03*
D42*
X56500000Y-84430000D03*
X55700000Y-84430000D03*
X54900000Y-84430000D03*
X54100000Y-84430000D03*
X53300000Y-84430000D03*
X52500000Y-84430000D03*
X51700000Y-84430000D03*
X50900000Y-84430000D03*
D41*
X49450000Y-82980000D03*
X49450000Y-82180000D03*
X49450000Y-81380000D03*
X49450000Y-80580000D03*
X49450000Y-79780000D03*
X49450000Y-78980000D03*
X49450000Y-78180000D03*
X49450000Y-77380000D03*
D42*
X50900000Y-75930000D03*
X51700000Y-75930000D03*
X52500000Y-75930000D03*
X53300000Y-75930000D03*
X54100000Y-75930000D03*
X54900000Y-75930000D03*
X55700000Y-75930000D03*
X56500000Y-75930000D03*
%TD*%
D39*
%TO.C,C11*%
X59937500Y-84700000D03*
X61662500Y-84700000D03*
%TD*%
D37*
%TO.C,JP2*%
X94832919Y-85658750D03*
D38*
X93532919Y-85658750D03*
%TD*%
D35*
%TO.C,C15*%
X100897919Y-71736250D03*
X100897919Y-73461250D03*
%TD*%
D40*
%TO.C,C12*%
X65162500Y-84700000D03*
X63437500Y-84700000D03*
%TD*%
D43*
%TO.C,C3*%
X61702919Y-50212500D03*
X61702919Y-48487500D03*
%TD*%
D33*
%TO.C,R6*%
X69362919Y-46572500D03*
X71362919Y-46572500D03*
%TD*%
D35*
%TO.C,C13*%
X101122919Y-93346250D03*
X101122919Y-95071250D03*
%TD*%
D44*
%TO.C,U4*%
X51177919Y-38020000D03*
X51177919Y-39290000D03*
X51177919Y-40560000D03*
X51177919Y-41830000D03*
X51177919Y-43100000D03*
X51177919Y-44370000D03*
X51177919Y-45640000D03*
X46227919Y-45640000D03*
X46227919Y-44370000D03*
X46227919Y-43100000D03*
X46227919Y-41830000D03*
X46227919Y-40560000D03*
X46227919Y-39290000D03*
X46227919Y-38020000D03*
%TD*%
D40*
%TO.C,C9*%
X46562500Y-80680000D03*
X44837500Y-80680000D03*
%TD*%
D33*
%TO.C,R8*%
X69362919Y-51572500D03*
X71362919Y-51572500D03*
%TD*%
D35*
%TO.C,C17*%
X100782919Y-49736250D03*
X100782919Y-51461250D03*
%TD*%
D36*
%TO.C,R4*%
X71362919Y-67572500D03*
X69362919Y-67572500D03*
%TD*%
M02*
