M48
; DRILL file {KiCad 7.0.1-3b83917a11~172~ubuntu22.10.1} date ven. 01 sept. 2023 18:30:57
; FORMAT={-:-/ absolute / metric / decimal}
; #@! TF.CreationDate,2023-09-01T18:30:57+02:00
; #@! TF.GenerationSoftware,Kicad,Pcbnew,7.0.1-3b83917a11~172~ubuntu22.10.1
; #@! TF.FileFunction,MixedPlating,1,2
FMAT,2
METRIC
; #@! TA.AperFunction,Plated,PTH,ViaDrill
T1C0.800
; #@! TA.AperFunction,Plated,PTH,ComponentDrill
T2C0.800
; #@! TA.AperFunction,Plated,PTH,ComponentDrill
T3C1.000
%
G90
G05
T1
X55.23Y-108.6
X57.77Y-108.6
X80.63Y-108.6
X83.17Y-108.6
X108.57Y-108.6
X111.11Y-108.6
X133.97Y-108.6
X136.51Y-108.6
X163.18Y-108.6
X165.72Y-108.6
X188.58Y-108.6
X191.12Y-108.6
X216.52Y-108.6
X219.06Y-108.6
X241.92Y-108.6
X244.46Y-108.6
T2
X50.135Y-98.425
X50.135Y-106.045
X52.675Y-98.425
X52.675Y-106.045
X55.215Y-98.425
X55.215Y-106.045
X57.755Y-98.425
X57.755Y-106.045
X60.295Y-98.425
X60.295Y-106.045
X62.835Y-98.425
X62.835Y-106.045
X65.375Y-98.425
X65.375Y-106.045
X67.915Y-98.425
X67.915Y-106.045
X75.535Y-98.425
X75.535Y-106.045
X78.075Y-98.425
X78.075Y-106.045
X80.615Y-98.425
X80.615Y-106.045
X83.155Y-98.425
X83.155Y-106.045
X85.695Y-98.425
X85.695Y-106.045
X88.235Y-98.425
X88.235Y-106.045
X90.775Y-98.425
X90.775Y-106.045
X93.315Y-98.425
X93.315Y-106.045
X103.475Y-98.425
X103.475Y-106.045
X106.015Y-98.425
X106.015Y-106.045
X108.555Y-98.425
X108.555Y-106.045
X111.095Y-98.425
X111.095Y-106.045
X113.635Y-98.425
X113.635Y-106.045
X116.175Y-98.425
X116.175Y-106.045
X118.715Y-98.425
X118.715Y-106.045
X121.255Y-98.425
X121.255Y-106.045
X128.95Y-98.44
X128.95Y-106.06
X131.49Y-98.44
X131.49Y-106.06
X134.03Y-98.44
X134.03Y-106.06
X136.57Y-98.44
X136.57Y-106.06
X139.11Y-98.44
X139.11Y-106.06
X141.65Y-98.44
X141.65Y-106.06
X144.19Y-98.44
X144.19Y-106.06
X146.73Y-98.44
X146.73Y-106.06
X158.04Y-98.425
X158.04Y-106.045
X160.58Y-98.425
X160.58Y-106.045
X163.12Y-98.425
X163.12Y-106.045
X165.66Y-98.425
X165.66Y-106.045
X168.2Y-98.425
X168.2Y-106.045
X170.74Y-98.425
X170.74Y-106.045
X173.28Y-98.425
X173.28Y-106.045
X175.82Y-98.425
X175.82Y-106.045
X183.5Y-98.425
X183.5Y-106.045
X186.04Y-98.425
X186.04Y-106.045
X188.58Y-98.425
X188.58Y-106.045
X191.12Y-98.425
X191.12Y-106.045
X193.66Y-98.425
X193.66Y-106.045
X196.2Y-98.425
X196.2Y-106.045
X198.74Y-98.425
X198.74Y-106.045
X201.28Y-98.425
X201.28Y-106.045
X211.38Y-98.425
X211.38Y-106.045
X213.92Y-98.425
X213.92Y-106.045
X216.46Y-98.425
X216.46Y-106.045
X219.0Y-98.425
X219.0Y-106.045
X221.54Y-98.425
X221.54Y-106.045
X224.08Y-98.425
X224.08Y-106.045
X226.62Y-98.425
X226.62Y-106.045
X229.16Y-98.425
X229.16Y-106.045
X236.84Y-98.425
X236.84Y-106.045
X239.38Y-98.425
X239.38Y-106.045
X241.92Y-98.425
X241.92Y-106.045
X244.46Y-98.425
X244.46Y-106.045
X247.0Y-98.425
X247.0Y-106.045
X249.54Y-98.425
X249.54Y-106.045
X252.08Y-98.425
X252.08Y-106.045
X254.62Y-98.425
X254.62Y-106.045
T3
X45.635Y-99.705
X45.635Y-102.245
X45.635Y-104.785
X45.635Y-107.325
X45.635Y-109.865
X47.605Y-94.63
X50.145Y-94.63
X52.685Y-94.63
X55.225Y-94.63
X57.765Y-94.63
X60.305Y-94.63
X62.845Y-94.63
X65.385Y-94.63
X67.925Y-94.63
X70.465Y-94.63
X73.005Y-94.63
X75.545Y-94.63
X78.085Y-94.63
X80.625Y-94.63
X83.165Y-94.63
X85.705Y-94.63
X88.245Y-94.63
X90.785Y-94.63
X93.325Y-94.63
X95.865Y-94.63
X100.945Y-94.63
X103.485Y-94.63
X106.025Y-94.63
X108.565Y-94.63
X111.105Y-94.63
X113.645Y-94.63
X116.185Y-94.63
X118.725Y-94.63
X121.265Y-94.63
X123.805Y-94.63
X126.345Y-94.63
X128.885Y-94.63
X131.425Y-94.63
X133.965Y-94.63
X136.505Y-94.63
X139.045Y-94.63
X141.585Y-94.63
X144.125Y-94.63
X146.665Y-94.63
X149.205Y-94.63
X155.55Y-94.63
X158.09Y-94.63
X160.63Y-94.63
X163.17Y-94.63
X165.71Y-94.63
X168.25Y-94.63
X170.79Y-94.63
X173.33Y-94.63
X175.87Y-94.63
X178.41Y-94.63
X180.95Y-94.63
X183.49Y-94.63
X186.03Y-94.63
X188.57Y-94.63
X191.11Y-94.63
X193.65Y-94.63
X196.19Y-94.63
X198.73Y-94.63
X201.27Y-94.63
X203.81Y-94.63
X208.89Y-94.63
X211.43Y-94.63
X213.97Y-94.63
X216.51Y-94.63
X219.05Y-94.63
X221.59Y-94.63
X224.13Y-94.63
X226.67Y-94.63
X229.21Y-94.63
X231.75Y-94.63
X234.29Y-94.63
X236.83Y-94.63
X239.37Y-94.63
X241.91Y-94.63
X244.45Y-94.63
X246.99Y-94.63
X249.53Y-94.63
X252.07Y-94.63
X254.61Y-94.63
X257.15Y-94.63
T0
M30
